<mxfile host="app.diagrams.net" modified="2023-05-07T20:57:06.498Z" agent="Mozilla/5.0 (Windows NT 10.0; Win64; x64) AppleWebKit/537.36 (KHTML, like Gecko) Chrome/112.0.0.0 Safari/537.36" etag="15pwfvF4QQsPOAJDFp5p" version="21.2.9" type="device">
  <diagram name="Page-1" id="xUJd68hmG6bfXLifv4zs">
    <mxGraphModel dx="1443" dy="693" grid="1" gridSize="10" guides="1" tooltips="1" connect="1" arrows="1" fold="1" page="1" pageScale="1" pageWidth="827" pageHeight="1169" math="0" shadow="0">
      <root>
        <mxCell id="0" />
        <mxCell id="1" parent="0" />
        <mxCell id="PeQWrJ3qWkAcZhjodVb8-31" style="edgeStyle=orthogonalEdgeStyle;rounded=0;orthogonalLoop=1;jettySize=auto;html=1;entryX=0.5;entryY=0;entryDx=0;entryDy=0;" edge="1" parent="1" source="PeQWrJ3qWkAcZhjodVb8-1" target="PeQWrJ3qWkAcZhjodVb8-2">
          <mxGeometry relative="1" as="geometry" />
        </mxCell>
        <mxCell id="PeQWrJ3qWkAcZhjodVb8-32" style="edgeStyle=orthogonalEdgeStyle;rounded=0;orthogonalLoop=1;jettySize=auto;html=1;entryX=0.5;entryY=0;entryDx=0;entryDy=0;" edge="1" parent="1" source="PeQWrJ3qWkAcZhjodVb8-1" target="PeQWrJ3qWkAcZhjodVb8-3">
          <mxGeometry relative="1" as="geometry">
            <Array as="points">
              <mxPoint x="180" y="310" />
              <mxPoint x="180" y="180" />
              <mxPoint x="460" y="180" />
            </Array>
          </mxGeometry>
        </mxCell>
        <mxCell id="PeQWrJ3qWkAcZhjodVb8-34" style="edgeStyle=orthogonalEdgeStyle;rounded=0;orthogonalLoop=1;jettySize=auto;html=1;entryX=0.47;entryY=1.018;entryDx=0;entryDy=0;entryPerimeter=0;" edge="1" parent="1" source="PeQWrJ3qWkAcZhjodVb8-1" target="PeQWrJ3qWkAcZhjodVb8-27">
          <mxGeometry relative="1" as="geometry">
            <Array as="points">
              <mxPoint x="140" y="310" />
              <mxPoint x="140" y="600" />
              <mxPoint x="536" y="600" />
            </Array>
          </mxGeometry>
        </mxCell>
        <mxCell id="PeQWrJ3qWkAcZhjodVb8-1" value="Client" style="shape=umlActor;html=1;verticalLabelPosition=bottom;verticalAlign=top;align=center;" vertex="1" parent="1">
          <mxGeometry x="90" y="280" width="30" height="60" as="geometry" />
        </mxCell>
        <mxCell id="PeQWrJ3qWkAcZhjodVb8-7" style="edgeStyle=orthogonalEdgeStyle;rounded=0;orthogonalLoop=1;jettySize=auto;html=1;entryX=0.5;entryY=0;entryDx=0;entryDy=0;" edge="1" parent="1" source="PeQWrJ3qWkAcZhjodVb8-2" target="PeQWrJ3qWkAcZhjodVb8-6">
          <mxGeometry relative="1" as="geometry" />
        </mxCell>
        <mxCell id="PeQWrJ3qWkAcZhjodVb8-2" value="Connection" style="ellipse;whiteSpace=wrap;html=1;" vertex="1" parent="1">
          <mxGeometry x="240" y="200" width="120" height="40" as="geometry" />
        </mxCell>
        <mxCell id="PeQWrJ3qWkAcZhjodVb8-8" style="edgeStyle=orthogonalEdgeStyle;rounded=0;orthogonalLoop=1;jettySize=auto;html=1;entryX=0.5;entryY=0;entryDx=0;entryDy=0;" edge="1" parent="1" source="PeQWrJ3qWkAcZhjodVb8-3" target="PeQWrJ3qWkAcZhjodVb8-6">
          <mxGeometry relative="1" as="geometry" />
        </mxCell>
        <mxCell id="PeQWrJ3qWkAcZhjodVb8-3" value="Création de compte" style="ellipse;whiteSpace=wrap;html=1;" vertex="1" parent="1">
          <mxGeometry x="400" y="200" width="120" height="40" as="geometry" />
        </mxCell>
        <mxCell id="PeQWrJ3qWkAcZhjodVb8-33" style="edgeStyle=orthogonalEdgeStyle;rounded=0;orthogonalLoop=1;jettySize=auto;html=1;entryX=0.5;entryY=1;entryDx=0;entryDy=0;" edge="1" parent="1" source="PeQWrJ3qWkAcZhjodVb8-5" target="PeQWrJ3qWkAcZhjodVb8-9">
          <mxGeometry relative="1" as="geometry">
            <Array as="points">
              <mxPoint x="105" y="570" />
              <mxPoint x="380" y="570" />
            </Array>
          </mxGeometry>
        </mxCell>
        <mxCell id="PeQWrJ3qWkAcZhjodVb8-5" value="Admin" style="shape=umlActor;verticalLabelPosition=bottom;verticalAlign=top;html=1;outlineConnect=0;" vertex="1" parent="1">
          <mxGeometry x="90" y="390" width="30" height="60" as="geometry" />
        </mxCell>
        <mxCell id="PeQWrJ3qWkAcZhjodVb8-13" style="edgeStyle=orthogonalEdgeStyle;rounded=0;orthogonalLoop=1;jettySize=auto;html=1;entryX=0.5;entryY=0;entryDx=0;entryDy=0;" edge="1" parent="1" source="PeQWrJ3qWkAcZhjodVb8-6" target="PeQWrJ3qWkAcZhjodVb8-12">
          <mxGeometry relative="1" as="geometry" />
        </mxCell>
        <mxCell id="PeQWrJ3qWkAcZhjodVb8-15" style="edgeStyle=orthogonalEdgeStyle;rounded=0;orthogonalLoop=1;jettySize=auto;html=1;entryX=0.5;entryY=0;entryDx=0;entryDy=0;" edge="1" parent="1" source="PeQWrJ3qWkAcZhjodVb8-6" target="PeQWrJ3qWkAcZhjodVb8-11">
          <mxGeometry relative="1" as="geometry" />
        </mxCell>
        <mxCell id="PeQWrJ3qWkAcZhjodVb8-19" style="edgeStyle=orthogonalEdgeStyle;rounded=0;orthogonalLoop=1;jettySize=auto;html=1;entryX=0.513;entryY=-0.074;entryDx=0;entryDy=0;entryPerimeter=0;" edge="1" parent="1" source="PeQWrJ3qWkAcZhjodVb8-6" target="PeQWrJ3qWkAcZhjodVb8-17">
          <mxGeometry relative="1" as="geometry" />
        </mxCell>
        <mxCell id="PeQWrJ3qWkAcZhjodVb8-20" style="edgeStyle=orthogonalEdgeStyle;rounded=0;orthogonalLoop=1;jettySize=auto;html=1;" edge="1" parent="1" source="PeQWrJ3qWkAcZhjodVb8-6" target="PeQWrJ3qWkAcZhjodVb8-18">
          <mxGeometry relative="1" as="geometry">
            <Array as="points">
              <mxPoint x="380" y="340" />
              <mxPoint x="620" y="340" />
            </Array>
          </mxGeometry>
        </mxCell>
        <mxCell id="PeQWrJ3qWkAcZhjodVb8-6" value="Accès page accueil" style="ellipse;whiteSpace=wrap;html=1;" vertex="1" parent="1">
          <mxGeometry x="320" y="280" width="120" height="40" as="geometry" />
        </mxCell>
        <mxCell id="PeQWrJ3qWkAcZhjodVb8-9" value="Modifier&lt;br&gt;Supprimer&lt;br&gt;Article" style="ellipse;whiteSpace=wrap;html=1;" vertex="1" parent="1">
          <mxGeometry x="320" y="490" width="120" height="60" as="geometry" />
        </mxCell>
        <mxCell id="PeQWrJ3qWkAcZhjodVb8-28" style="edgeStyle=orthogonalEdgeStyle;rounded=0;orthogonalLoop=1;jettySize=auto;html=1;entryX=0.5;entryY=0;entryDx=0;entryDy=0;" edge="1" parent="1" source="PeQWrJ3qWkAcZhjodVb8-11" target="PeQWrJ3qWkAcZhjodVb8-9">
          <mxGeometry relative="1" as="geometry" />
        </mxCell>
        <mxCell id="PeQWrJ3qWkAcZhjodVb8-29" style="edgeStyle=orthogonalEdgeStyle;rounded=0;orthogonalLoop=1;jettySize=auto;html=1;" edge="1" parent="1" source="PeQWrJ3qWkAcZhjodVb8-11" target="PeQWrJ3qWkAcZhjodVb8-27">
          <mxGeometry relative="1" as="geometry">
            <Array as="points">
              <mxPoint x="380" y="440" />
              <mxPoint x="540" y="440" />
            </Array>
          </mxGeometry>
        </mxCell>
        <mxCell id="PeQWrJ3qWkAcZhjodVb8-11" value="Sélectionner article" style="ellipse;whiteSpace=wrap;html=1;" vertex="1" parent="1">
          <mxGeometry x="320" y="360" width="120" height="40" as="geometry" />
        </mxCell>
        <mxCell id="PeQWrJ3qWkAcZhjodVb8-12" value="Ajouter article" style="ellipse;whiteSpace=wrap;html=1;" vertex="1" parent="1">
          <mxGeometry x="200" y="360" width="120" height="40" as="geometry" />
        </mxCell>
        <mxCell id="PeQWrJ3qWkAcZhjodVb8-17" value="Rechercher un article par nom" style="ellipse;whiteSpace=wrap;html=1;" vertex="1" parent="1">
          <mxGeometry x="440" y="360" width="120" height="60" as="geometry" />
        </mxCell>
        <mxCell id="PeQWrJ3qWkAcZhjodVb8-18" value="Trier les articles selon la date" style="ellipse;whiteSpace=wrap;html=1;" vertex="1" parent="1">
          <mxGeometry x="560" y="360" width="120" height="60" as="geometry" />
        </mxCell>
        <mxCell id="PeQWrJ3qWkAcZhjodVb8-23" value="&amp;lt;Include&amp;gt;" style="edgeStyle=orthogonalEdgeStyle;rounded=0;orthogonalLoop=1;jettySize=auto;html=1;entryX=0.5;entryY=1;entryDx=0;entryDy=0;dashed=1;" edge="1" parent="1" source="PeQWrJ3qWkAcZhjodVb8-22" target="PeQWrJ3qWkAcZhjodVb8-12">
          <mxGeometry relative="1" as="geometry" />
        </mxCell>
        <mxCell id="PeQWrJ3qWkAcZhjodVb8-25" value="I" style="edgeLabel;html=1;align=center;verticalAlign=middle;resizable=0;points=[];" vertex="1" connectable="0" parent="PeQWrJ3qWkAcZhjodVb8-23">
          <mxGeometry x="-0.2832" relative="1" as="geometry">
            <mxPoint as="offset" />
          </mxGeometry>
        </mxCell>
        <mxCell id="PeQWrJ3qWkAcZhjodVb8-24" style="edgeStyle=orthogonalEdgeStyle;rounded=0;orthogonalLoop=1;jettySize=auto;html=1;entryX=0;entryY=0.5;entryDx=0;entryDy=0;dashed=1;" edge="1" parent="1" source="PeQWrJ3qWkAcZhjodVb8-22" target="PeQWrJ3qWkAcZhjodVb8-9">
          <mxGeometry relative="1" as="geometry" />
        </mxCell>
        <mxCell id="PeQWrJ3qWkAcZhjodVb8-26" value="&amp;lt;Include&amp;gt;" style="edgeLabel;html=1;align=center;verticalAlign=middle;resizable=0;points=[];" vertex="1" connectable="0" parent="PeQWrJ3qWkAcZhjodVb8-24">
          <mxGeometry x="-0.2679" y="-1" relative="1" as="geometry">
            <mxPoint as="offset" />
          </mxGeometry>
        </mxCell>
        <mxCell id="PeQWrJ3qWkAcZhjodVb8-22" value="Sauvegarder dans la BD" style="ellipse;whiteSpace=wrap;html=1;" vertex="1" parent="1">
          <mxGeometry x="160" y="450" width="120" height="60" as="geometry" />
        </mxCell>
        <mxCell id="PeQWrJ3qWkAcZhjodVb8-27" value="Acheter article" style="ellipse;whiteSpace=wrap;html=1;" vertex="1" parent="1">
          <mxGeometry x="480" y="480" width="120" height="40" as="geometry" />
        </mxCell>
      </root>
    </mxGraphModel>
  </diagram>
</mxfile>
